<svg width="645" height="509" viewBox="0 0 645 509" fill="none" xmlns="http://www.w3.org/2000/svg">
<path d="M89.1147 212.249C91.7924 185.873 100.982 160.576 115.857 138.63C130.732 116.685 150.826 98.7795 174.335 86.5231C215.961 64.8751 261.378 51.4726 308.089 47.0522C435.08 35.1514 470.82 100.248 492.268 158.986C513.717 217.723 583.558 316.958 576.423 414.593C576.423 414.593 570.86 468.608 550.224 493.184H88.2062C88.2062 493.184 61.2096 456.693 89.8073 387.611C118.405 318.53 80.2748 315.372 87.4242 230.473C87.9604 223.956 88.5338 217.909 89.1147 212.249Z" fill="#E6E7E8"/>
<path opacity="0.7" d="M89.1147 212.249C91.7924 185.873 100.982 160.576 115.857 138.63C130.732 116.685 150.826 98.7795 174.335 86.5231C215.961 64.8751 261.378 51.4726 308.089 47.0522C435.08 35.1514 470.82 100.248 492.268 158.986C513.717 217.723 583.558 316.958 576.423 414.593C576.423 414.593 570.86 468.608 550.224 493.184H88.2062C88.2062 493.184 61.2096 456.693 89.8073 387.611C118.405 318.53 80.2748 315.372 87.4242 230.473C87.9604 223.956 88.5338 217.909 89.1147 212.249Z" fill="#E6E7E8"/>
<g opacity="0.3">
<path d="M172.257 21.9026H101.701V122.903H172.257V21.9026Z" stroke="#2F2E41" stroke-width="0.744733" stroke-linecap="round" stroke-linejoin="round"/>
<path d="M247.661 21.9026H177.105V122.903H247.661V21.9026Z" stroke="#2F2E41" stroke-width="0.744733" stroke-linecap="round" stroke-linejoin="round"/>
<path d="M323.065 21.9026H252.509V122.903H323.065V21.9026Z" stroke="#2F2E41" stroke-width="0.744733" stroke-linecap="round" stroke-linejoin="round"/>
<path d="M172.257 127.744H101.701V228.745H172.257V127.744Z" stroke="#2F2E41" stroke-width="0.744733" stroke-linecap="round" stroke-linejoin="round"/>
<path d="M247.661 127.744H177.105V228.745H247.661V127.744Z" stroke="#2F2E41" stroke-width="0.744733" stroke-linecap="round" stroke-linejoin="round"/>
<path d="M323.065 127.744H252.509V228.745H323.065V127.744Z" stroke="#2F2E41" stroke-width="0.744733" stroke-linecap="round" stroke-linejoin="round"/>
<path d="M172.257 233.593H101.701V334.594H172.257V233.593Z" stroke="#2F2E41" stroke-width="0.744733" stroke-linecap="round" stroke-linejoin="round"/>
<path d="M247.661 233.593H177.105V334.594H247.661V233.593Z" stroke="#2F2E41" stroke-width="0.744733" stroke-linecap="round" stroke-linejoin="round"/>
<path d="M323.065 233.593H252.509V334.594H323.065V233.593Z" stroke="#2F2E41" stroke-width="0.744733" stroke-linecap="round" stroke-linejoin="round"/>
</g>
<path d="M533.065 37.1249V358.514C533.065 362.751 531.383 366.813 528.389 369.81C525.395 372.807 521.334 374.492 517.098 374.496H378.22C373.984 374.492 369.923 372.807 366.929 369.81C363.935 366.813 362.253 362.751 362.253 358.514V37.1175C362.252 35.021 362.664 32.9449 363.466 31.0077C364.267 29.0705 365.443 27.3103 366.925 25.8275C368.407 24.3447 370.167 23.1685 372.103 22.366C374.04 21.5635 376.116 21.1504 378.213 21.1504H437.791L437.843 21.3366C439.333 26.6838 442.744 30.1542 446.542 30.1542H448.657C452.463 30.1542 455.866 26.6838 457.363 21.3366L457.415 21.1504H516.994C519.091 21.1435 521.169 21.55 523.11 22.3466C525.05 23.1431 526.814 24.3142 528.302 25.7928C529.79 27.2714 530.971 29.0287 531.78 30.9641C532.588 32.8996 533.007 34.9753 533.013 37.0728L533.065 37.1249Z" fill="white"/>
<path d="M533.065 267.575V37.1249C533.065 32.8895 531.383 28.8274 528.389 25.8319C525.395 22.8363 521.333 21.1524 517.098 21.1504H457.519L457.467 21.3366C455.978 26.6838 452.567 30.1542 448.761 30.1542H446.646C442.855 30.1542 439.43 26.6838 437.948 21.3366L437.903 21.1504H378.213C376.116 21.1504 374.04 21.5634 372.103 22.366C370.167 23.1685 368.407 24.3447 366.925 25.8275C365.443 27.3103 364.267 29.0705 363.466 31.0077C362.664 32.9449 362.252 35.021 362.253 37.1175V37.1175V267.575H533.065Z" fill="#F1F2F2"/>
<path d="M457.445 21.3366C455.955 26.6838 452.544 30.1542 448.739 30.1542H446.624C442.833 30.1542 439.407 26.6838 437.925 21.3366L437.903 21.1504H387.589C381.559 21.1447 375.724 23.2914 371.136 27.2042C366.547 31.117 363.505 36.5389 362.558 42.4944H532.752C531.805 36.5402 528.765 31.1192 524.178 27.2066C519.591 23.294 513.758 21.1465 507.729 21.1504H457.497L457.445 21.3366Z" fill="#D4D4D4"/>
<path d="M543.923 113.892V81.7866H540.989V40.6922C540.989 33.9767 538.321 27.5362 533.573 22.7876C528.824 18.039 522.384 15.3713 515.668 15.3713H379.62C372.905 15.3713 366.464 18.039 361.716 22.7876C356.967 27.5362 354.299 33.9767 354.299 40.6922V40.6922V367.25C354.299 373.966 356.967 380.406 361.716 385.155C366.464 389.903 372.905 392.571 379.62 392.571H515.683C522.398 392.571 528.839 389.903 533.587 385.155C538.336 380.406 541.004 373.966 541.004 367.25V141.246H543.908V122.278H541.004V113.892H543.923ZM533.065 349.161C533.065 355.876 530.397 362.317 525.649 367.065C520.9 371.814 514.46 374.481 507.744 374.481H387.589C380.873 374.481 374.433 371.814 369.684 367.065C364.936 362.317 362.268 355.876 362.268 349.161V46.4639C362.268 39.7484 364.936 33.3079 369.684 28.5593C374.433 23.8107 380.873 21.143 387.589 21.143H437.821L437.873 21.3291C439.363 26.6763 442.774 30.1468 446.572 30.1468H448.687C452.492 30.1468 455.896 26.6763 457.393 21.3291L457.445 21.143H507.729C514.445 21.143 520.885 23.8107 525.634 28.5593C530.382 33.3079 533.05 39.7484 533.05 46.4639L533.065 349.161Z" fill="#BCBEC0"/>
<path d="M449.513 22.342C449.513 21.8706 449.374 21.4099 449.112 21.018C448.85 20.6261 448.478 20.3206 448.042 20.1402C447.607 19.9599 447.128 19.9127 446.665 20.0046C446.203 20.0966 445.778 20.3236 445.445 20.6568C445.112 20.9901 444.885 21.4148 444.793 21.8771C444.701 22.3393 444.748 22.8185 444.929 23.254C445.109 23.6894 445.414 24.0616 445.806 24.3235C446.198 24.5854 446.659 24.7251 447.13 24.7251C447.762 24.7251 448.368 24.474 448.815 24.0271C449.262 23.5802 449.513 22.974 449.513 22.342V22.342Z" fill="white"/>
<path d="M377.431 31.4798C377.431 33.8853 374.727 34.7492 374.72 36.5813V36.7153H377.341V37.5196H373.856V36.8419C373.856 34.2651 376.552 33.7587 376.552 31.5469C376.552 30.7277 376.276 30.2957 375.621 30.2957C374.966 30.2957 374.69 30.7575 374.69 31.4724V32.165H373.856V31.5245C373.856 30.3032 374.415 29.4914 375.643 29.4914C376.872 29.4914 377.431 30.2585 377.431 31.4798Z" fill="#A7A9AC"/>
<path d="M381.802 31.4724V31.6362C381.84 31.9792 381.765 32.3251 381.589 32.6218C381.413 32.9186 381.145 33.1503 380.827 33.2821C381.148 33.4132 381.417 33.6458 381.593 33.9444C381.769 34.243 381.843 34.5911 381.802 34.9354V35.5461C381.802 36.7749 381.229 37.5718 380 37.5718C378.771 37.5718 378.213 36.7749 378.213 35.5461V35.0024H379.069V35.6057C379.069 36.3504 379.367 36.76 380 36.76C380.633 36.76 380.946 36.3355 380.946 35.5163V34.9056C380.946 34.1236 380.603 33.7364 379.94 33.714H379.464V32.9321H380.03C380.157 32.933 380.282 32.9089 380.4 32.8611C380.517 32.8132 380.624 32.7426 380.714 32.6533C380.804 32.564 380.875 32.4578 380.924 32.3407C380.973 32.2237 380.998 32.0982 380.998 31.9714V31.5022C380.998 30.683 380.708 30.2585 380.052 30.2585C379.397 30.2585 379.121 30.7053 379.121 31.4277V31.8299H378.295V31.4724C378.295 30.251 378.861 29.4542 380.082 29.4542C381.303 29.4542 381.802 30.251 381.802 31.4724Z" fill="#A7A9AC"/>
<path d="M383.537 32.0756V33.1332H382.688V32.0756H383.537ZM383.537 36.4174V37.475H382.688V36.4174H383.537Z" fill="#A7A9AC"/>
<path d="M385.295 32.7682C385.413 32.5585 385.587 32.3856 385.797 32.2686C386.008 32.1516 386.246 32.0951 386.487 32.1054C387.544 32.1054 387.976 32.8502 387.976 33.997V35.5535C387.976 36.7823 387.403 37.5792 386.174 37.5792C384.945 37.5792 384.386 36.7823 384.386 35.5535V35.0248H385.221V35.6206C385.221 36.3653 385.518 36.7749 386.151 36.7749C386.785 36.7749 387.082 36.343 387.082 35.6206V34.0864C387.082 33.3417 386.792 32.9395 386.151 32.9395C385.922 32.9334 385.699 33.0172 385.531 33.1731C385.363 33.3289 385.262 33.5445 385.25 33.7736V33.9821H384.424L384.64 29.5137H387.82V30.3032H385.466L385.295 32.7682Z" fill="#A7A9AC"/>
<path d="M392.43 31.4575V31.6362H391.685V31.4277C391.685 30.683 391.387 30.2957 390.732 30.2957C390.076 30.2957 389.763 30.7277 389.763 31.5767V33.3342C389.857 33.0706 390.034 32.8449 390.268 32.6916C390.502 32.5383 390.78 32.4658 391.059 32.4852C392.117 32.4852 392.549 33.23 392.549 34.3694V35.5759C392.549 36.8047 391.931 37.6015 390.717 37.6015C389.503 37.6015 388.885 36.8047 388.885 35.5759V31.5096C388.885 30.251 389.458 29.4542 390.717 29.4542C391.975 29.4542 392.43 30.2436 392.43 31.4575ZM389.682 34.4364V35.6354C389.682 36.3802 389.979 36.7898 390.627 36.7898C391.275 36.7898 391.581 36.3578 391.581 35.6354V34.4439C391.581 33.6991 391.275 33.2895 390.627 33.2895C389.979 33.2895 389.682 33.7587 389.682 34.4439V34.4364Z" fill="#A7A9AC"/>
<path d="M479.571 31.8075H477.314V37.4452H479.571V31.8075Z" fill="#A7A9AC"/>
<path d="M482.579 30.6755H480.323V37.4452H482.579V30.6755Z" fill="#A7A9AC"/>
<path d="M485.573 29.8787H483.317V37.4377H485.573V29.8787Z" fill="#A7A9AC"/>
<path d="M488.582 28.486H486.326V37.4452H488.582V28.486Z" fill="#A7A9AC"/>
<path d="M516.472 37.2813H502.948V29.0446H516.472V37.2813ZM503.7 36.5366H515.72V29.7893H503.7V36.5366Z" fill="#A7A9AC"/>
<path d="M511.974 30.5936H504.832V35.7174H511.974V30.5936Z" fill="#A7A9AC"/>
<path d="M517.709 32.1799H516.003V34.1311H517.709V32.1799Z" fill="#A7A9AC"/>
<path d="M497.988 35.494C497.898 35.4923 497.811 35.4666 497.735 35.4195C494.979 33.7811 493.162 35.3003 493.088 35.4195C493.037 35.4682 492.977 35.5059 492.911 35.5303C492.846 35.5546 492.775 35.565 492.705 35.5608C492.635 35.5566 492.567 35.5379 492.505 35.5059C492.442 35.4738 492.387 35.4292 492.343 35.3748V35.3748C492.293 35.3263 492.254 35.2683 492.227 35.2044C492.2 35.1404 492.186 35.0718 492.186 35.0024C492.186 34.9331 492.2 34.8644 492.227 34.8005C492.254 34.7365 492.293 34.6786 492.343 34.6301C492.44 34.5407 494.771 32.5076 498.182 34.6301C498.238 34.6631 498.287 34.7068 498.326 34.7589C498.365 34.8109 498.393 34.8701 498.409 34.9332C498.425 34.9962 498.428 35.0618 498.418 35.1261C498.409 35.1904 498.387 35.2521 498.353 35.3078V35.3078C498.308 35.3622 498.253 35.4068 498.19 35.4388C498.127 35.4708 498.058 35.4896 497.988 35.494V35.494Z" fill="#A7A9AC"/>
<path d="M499.008 33.7587C498.917 33.7586 498.828 33.7355 498.748 33.6917C494.771 31.3235 492.097 33.6098 492.045 33.6321C491.995 33.6809 491.935 33.7186 491.869 33.7429C491.803 33.7672 491.733 33.7776 491.663 33.7734C491.593 33.7692 491.524 33.7505 491.462 33.7185C491.4 33.6865 491.345 33.6419 491.3 33.5874C491.251 33.5376 491.212 33.4777 491.187 33.4118C491.162 33.3459 491.151 33.2754 491.155 33.205C491.16 33.1347 491.179 33.066 491.211 33.0036C491.244 32.9411 491.29 32.8863 491.345 32.8427C491.345 32.8427 494.607 30.0425 499.209 32.7906C499.265 32.8236 499.314 32.8673 499.353 32.9194C499.392 32.9714 499.421 33.0306 499.436 33.0937C499.452 33.1567 499.456 33.2223 499.446 33.2866C499.437 33.3509 499.414 33.4126 499.381 33.4683V33.4683C499.346 33.5429 499.295 33.6083 499.23 33.6588C499.165 33.7093 499.089 33.7436 499.008 33.7587V33.7587Z" fill="#A7A9AC"/>
<path d="M499.939 31.8299C499.846 31.8245 499.754 31.7991 499.671 31.7554C494.629 28.7765 491.285 31.5767 491.144 31.7554C491.045 31.8416 490.916 31.8852 490.785 31.8768C490.654 31.8685 490.531 31.8088 490.444 31.7107V31.7107C490.392 31.6633 490.351 31.6057 490.323 31.5416C490.295 31.4775 490.281 31.4083 490.281 31.3383C490.281 31.2684 490.295 31.1992 490.323 31.1351C490.351 31.071 490.392 31.0134 490.444 30.966V30.966C490.444 30.966 494.458 27.5179 500.125 30.9064C500.239 30.976 500.322 31.0872 500.355 31.2165C500.388 31.3458 500.37 31.483 500.304 31.599C500.263 31.661 500.209 31.7136 500.146 31.7534C500.083 31.7932 500.013 31.8192 499.939 31.8299V31.8299Z" fill="#A7A9AC"/>
<path d="M496.506 36.3281C496.509 36.5812 496.436 36.8294 496.298 37.0411C496.159 37.2528 495.96 37.4183 495.727 37.5166C495.493 37.6148 495.236 37.6413 494.988 37.5926C494.739 37.5439 494.511 37.4223 494.332 37.2434C494.153 37.0644 494.031 36.8361 493.983 36.5877C493.934 36.3393 493.961 36.082 494.059 35.8487C494.157 35.6154 494.323 35.4167 494.534 35.2779C494.746 35.1391 494.994 35.0665 495.247 35.0695V35.0695C495.58 35.0733 495.898 35.2072 496.133 35.4424C496.368 35.6776 496.502 35.9954 496.506 36.3281V36.3281Z" fill="#A7A9AC"/>
<path d="M523.927 108.098H373.044V204.66H523.927V108.098Z" stroke="#A7A9AC" stroke-width="0.744733" stroke-miterlimit="10"/>
<path d="M523.927 193.906H373.044V204.667H523.927V193.906Z" stroke="#A7A9AC" stroke-width="0.744733" stroke-miterlimit="10"/>
<path d="M523.927 197.719H373.044V200.854H523.927V197.719Z" stroke="#A7A9AC" stroke-width="0.744733" stroke-miterlimit="10"/>
<path d="M375.472 97.6866L375.703 84.1846H378.615L380.29 92.6522L382.048 84.1548H384.871L385.109 97.6568H383.158L382.934 88.504L381.221 97.6568H379.449L377.654 88.4296L377.46 97.6568L375.472 97.6866Z" fill="#D8D8D8"/>
<path d="M388.751 97.6866V92.3916L386.114 84.1995H388.751L390.203 88.9434L391.551 84.1995H394.061L391.454 92.3916V97.6866H388.751Z" fill="#D8D8D8"/>
<path d="M403.005 97.8728C402.173 97.9155 401.346 97.7191 400.622 97.3068C400.048 96.9354 399.619 96.3779 399.408 95.728C399.164 94.9704 399.048 94.1776 399.065 93.382V88.5338C399.051 87.7159 399.169 86.901 399.415 86.1209C399.638 85.5028 400.063 84.978 400.622 84.6314C401.349 84.2297 402.175 84.0388 403.005 84.0803C403.793 84.0429 404.577 84.207 405.284 84.557C405.821 84.8655 406.232 85.3533 406.446 85.9347C406.688 86.5869 406.805 87.2795 406.788 87.9753V89.0775H404.122V87.8114C404.137 87.5187 404.137 87.2254 404.122 86.9327C404.1 86.6865 404.004 86.4528 403.846 86.2624C403.738 86.1703 403.612 86.1005 403.477 86.057C403.341 86.0136 403.199 85.9973 403.057 86.0092C402.915 85.9966 402.771 86.0133 402.635 86.0581C402.5 86.1029 402.374 86.175 402.268 86.2698C402.09 86.4606 401.977 86.7033 401.947 86.9624C401.902 87.273 401.882 87.5869 401.888 87.9008V94.0449C401.881 94.3769 401.909 94.7088 401.97 95.0354C402.014 95.2852 402.137 95.5145 402.32 95.6907C402.534 95.8502 402.798 95.9293 403.064 95.9141C403.199 95.9246 403.335 95.9075 403.463 95.864C403.591 95.8205 403.709 95.7514 403.809 95.6609C403.967 95.4587 404.065 95.2161 404.092 94.9609C404.114 94.656 404.114 94.3498 404.092 94.0449V92.7341H406.766V93.8363C406.781 94.5557 406.668 95.2721 406.431 95.9514C406.222 96.5466 405.814 97.0517 405.276 97.3813C404.58 97.7555 403.793 97.9258 403.005 97.8728V97.8728Z" fill="#D8D8D8"/>
<path d="M412.239 97.8728C411.423 97.9178 410.61 97.732 409.894 97.3366C409.324 96.9928 408.887 96.4685 408.65 95.8471C408.387 95.086 408.263 94.2838 408.285 93.4789V88.3998C408.263 87.5924 408.387 86.7878 408.65 86.0241C408.88 85.3988 409.319 84.8724 409.894 84.5346C410.613 84.1499 411.425 83.9696 412.239 84.0133C413.066 83.9677 413.89 84.1479 414.623 84.5346C415.198 84.8725 415.64 85.3986 415.874 86.0241C416.148 86.7826 416.277 87.5861 416.254 88.3923V93.4342C416.277 94.2405 416.148 95.0439 415.874 95.8024C415.64 96.428 415.198 96.954 414.623 97.2919C413.898 97.704 413.072 97.9053 412.239 97.8728V97.8728ZM412.239 95.8844C412.382 95.8991 412.526 95.8849 412.663 95.8427C412.8 95.8005 412.927 95.7311 413.036 95.6386C413.21 95.4645 413.324 95.2406 413.364 94.9981C413.423 94.7089 413.453 94.4145 413.453 94.1193V87.7742C413.453 87.4815 413.424 87.1895 413.364 86.9029C413.32 86.6598 413.206 86.4348 413.036 86.255C412.808 86.0826 412.524 86.0004 412.239 86.0241C411.971 86.0034 411.704 86.086 411.495 86.255C411.317 86.4308 411.197 86.6569 411.152 86.9029C411.099 87.1903 411.071 87.4819 411.07 87.7742V94.1268C411.072 94.4212 411.097 94.715 411.145 95.0056C411.181 95.2512 411.296 95.4784 411.472 95.6535C411.689 95.8266 411.964 95.9094 412.239 95.8844V95.8844Z" fill="#D8D8D8"/>
<path d="M421.891 97.8728C421.063 97.9211 420.238 97.7381 419.508 97.344C418.945 97.0051 418.52 96.4773 418.309 95.8546C418.064 95.0745 417.951 94.259 417.974 93.4416V84.1548H420.685V93.8363C420.687 94.1653 420.712 94.4938 420.759 94.8194C420.803 95.0928 420.919 95.3497 421.094 95.5641C421.195 95.673 421.319 95.7576 421.457 95.8118C421.595 95.866 421.743 95.8882 421.891 95.8769C422.04 95.8842 422.188 95.8602 422.327 95.8063C422.465 95.7524 422.591 95.6699 422.696 95.5641C422.874 95.3526 422.988 95.094 423.023 94.8194C423.068 94.4936 423.09 94.1651 423.09 93.8363V84.1548H425.808V93.3895C425.824 94.2064 425.711 95.0207 425.473 95.8024C425.259 96.4233 424.835 96.95 424.274 97.2919C423.547 97.6982 422.724 97.899 421.891 97.8728Z" fill="#D8D8D8"/>
<path d="M427.73 97.6866V84.1548H431.2C431.994 84.1327 432.785 84.2358 433.546 84.4602C434.15 84.6292 434.677 85.003 435.036 85.5177C435.408 86.1581 435.587 86.8928 435.55 87.6327C435.559 88.1326 435.514 88.6319 435.416 89.1222C435.323 89.5051 435.153 89.865 434.917 90.1797C434.633 90.5141 434.269 90.7704 433.859 90.9244L435.728 97.5079H432.913L431.357 91.3862H430.456V97.56L427.73 97.6866ZM430.456 89.9339H431.253C431.618 89.95 431.982 89.8731 432.31 89.7105C432.568 89.5693 432.763 89.3349 432.854 89.0552C432.965 88.7139 433.018 88.3564 433.01 87.9976C433.039 87.4986 432.923 87.0018 432.675 86.5677C432.516 86.388 432.315 86.2495 432.091 86.1639C431.867 86.0783 431.625 86.0482 431.387 86.0762H430.456V89.9339Z" fill="#D8D8D8"/>
<path d="M440.882 97.8728C440.146 97.908 439.414 97.7487 438.759 97.4111C438.203 97.0985 437.762 96.6155 437.501 96.0333C437.196 95.2828 437.031 94.4825 437.017 93.6725L439.385 93.2703C439.393 93.7368 439.451 94.2011 439.556 94.6555C439.619 94.9687 439.769 95.2578 439.988 95.4896C440.088 95.5827 440.205 95.6549 440.333 95.7022C440.461 95.7496 440.597 95.7709 440.733 95.7652C440.875 95.7887 441.022 95.7702 441.154 95.712C441.286 95.6539 441.399 95.5585 441.478 95.4375C441.606 95.2105 441.673 94.9537 441.671 94.6928C441.686 94.1886 441.546 93.692 441.269 93.2703C440.962 92.8418 440.604 92.4518 440.204 92.1086L438.797 90.8574C438.306 90.4569 437.89 89.9728 437.568 89.4275C437.233 88.8251 437.068 88.1429 437.091 87.454C437.061 86.982 437.133 86.5091 437.301 86.0672C437.469 85.6252 437.73 85.2245 438.067 84.8921C438.814 84.2689 439.769 83.9522 440.74 84.0059C441.314 83.9831 441.886 84.0953 442.409 84.3335C442.838 84.5294 443.205 84.8416 443.466 85.2347C443.702 85.607 443.871 86.0179 443.965 86.4486C444.054 86.8784 444.114 87.3139 444.144 87.7519L441.783 88.1019C441.767 87.7478 441.732 87.3948 441.679 87.0444C441.652 86.7729 441.549 86.5146 441.381 86.2996C441.294 86.2129 441.192 86.1442 441.079 86.0972C440.965 86.0503 440.844 86.0261 440.722 86.0261C440.599 86.0261 440.478 86.0503 440.365 86.0972C440.252 86.1442 440.149 86.2129 440.063 86.2996L439.981 86.389C439.83 86.6274 439.75 86.9037 439.75 87.1859C439.734 87.6026 439.849 88.014 440.078 88.3625C440.339 88.7123 440.636 89.0343 440.964 89.3233L442.334 90.5223C442.912 91.0025 443.415 91.5674 443.824 92.1979C444.254 92.8944 444.467 93.7034 444.434 94.5215C444.442 95.1227 444.293 95.7155 444.002 96.2418C443.72 96.748 443.302 97.1657 442.796 97.4483C442.208 97.7607 441.547 97.9074 440.882 97.8728V97.8728Z" fill="#D8D8D8"/>
<path d="M445.604 97.6866V84.1548H451.494V86.0464H448.329V89.636H450.757V91.6021H448.329V95.8397H451.509V97.7015L445.604 97.6866Z" fill="#D8D8D8"/>
<path d="M374.832 223.263V212.614H376.321V223.263H374.832Z" fill="#D1D3D4"/>
<path d="M378.019 223.263V212.614H379.069L382.048 219.696V212.621H383.292V223.271H382.346L379.285 215.973V223.249L378.019 223.263Z" fill="#D1D3D4"/>
<path d="M386.137 223.263V213.738H384.334V212.681H389.376V213.738H387.626V223.271L386.137 223.263Z" fill="#D1D3D4"/>
<path d="M390.404 223.263V212.614H392.519C393.123 212.592 393.725 212.688 394.291 212.897C394.745 213.053 395.122 213.375 395.349 213.798C395.592 214.309 395.709 214.871 395.692 215.436C395.693 215.816 395.646 216.194 395.55 216.561C395.483 216.875 395.343 217.168 395.14 217.417C394.942 217.65 394.685 217.824 394.396 217.924L395.885 223.226H394.455L393.048 218.207H391.893V223.211L390.404 223.263ZM391.893 217.194H392.474C392.836 217.216 393.198 217.165 393.539 217.045C393.794 216.946 394.001 216.754 394.12 216.509C394.253 216.173 394.314 215.812 394.299 215.451C394.344 214.977 394.226 214.501 393.964 214.103C393.779 213.941 393.562 213.821 393.327 213.75C393.092 213.68 392.844 213.66 392.601 213.694H391.946L391.893 217.194Z" fill="#D1D3D4"/>
<path d="M399.959 223.338C399.356 223.369 398.756 223.227 398.231 222.928C397.797 222.641 397.472 222.216 397.308 221.722C397.109 221.132 397.016 220.512 397.032 219.89V215.928C397.023 215.311 397.116 214.697 397.308 214.111C397.481 213.635 397.805 213.23 398.231 212.956C398.761 212.672 399.357 212.533 399.959 212.554C400.555 212.531 401.146 212.675 401.664 212.971C402.089 213.243 402.409 213.649 402.573 214.126C402.775 214.704 402.871 215.315 402.856 215.928V219.979C402.87 220.597 402.774 221.212 402.573 221.796C402.41 222.287 402.091 222.711 401.664 223.003C401.141 223.279 400.548 223.396 399.959 223.338V223.338ZM399.959 222.176C400.274 222.197 400.586 222.11 400.845 221.93C401.055 221.753 401.201 221.513 401.262 221.245C401.329 220.894 401.359 220.537 401.351 220.18V215.511C401.359 215.156 401.329 214.802 401.262 214.453C401.199 214.195 401.053 213.964 400.845 213.798C400.58 213.632 400.27 213.554 399.959 213.575C399.638 213.554 399.318 213.632 399.043 213.798C398.837 213.965 398.693 214.195 398.633 214.453C398.558 214.801 398.523 215.155 398.529 215.511V220.18C398.523 220.538 398.558 220.895 398.633 221.245C398.692 221.512 398.836 221.753 399.043 221.93C399.309 222.123 399.631 222.223 399.959 222.213V222.176Z" fill="#D1D3D4"/>
<path d="M404.39 223.263V212.614H406.714C407.356 212.582 407.997 212.705 408.583 212.971C409.028 213.196 409.379 213.57 409.573 214.029C409.784 214.606 409.885 215.217 409.871 215.831V219.748C409.881 220.396 409.78 221.041 409.573 221.655C409.395 222.146 409.053 222.562 408.605 222.832C408.06 223.128 407.444 223.267 406.825 223.234L404.39 223.263ZM405.879 222.206H406.728C407.14 222.245 407.551 222.131 407.883 221.886C408.132 221.644 408.281 221.317 408.3 220.97C408.351 220.475 408.376 219.978 408.374 219.48V216.017C408.382 215.568 408.344 215.119 408.263 214.677C408.245 214.527 408.196 214.383 408.117 214.255C408.039 214.126 407.933 214.016 407.808 213.932C407.44 213.756 407.029 213.689 406.624 213.738H405.879V222.206Z" fill="#D1D3D4"/>
<path d="M413.997 223.338C413.375 223.379 412.757 223.22 412.232 222.884C411.809 222.565 411.509 222.11 411.383 221.595C411.227 220.952 411.152 220.291 411.16 219.629V212.569H412.582V219.696C412.577 220.115 412.61 220.534 412.679 220.947C412.717 221.282 412.857 221.597 413.081 221.848C413.203 221.963 413.348 222.05 413.505 222.107C413.663 222.163 413.83 222.187 413.997 222.176C414.169 222.188 414.341 222.165 414.503 222.109C414.666 222.052 414.815 221.964 414.943 221.848C415.156 221.591 415.293 221.279 415.338 220.947C415.398 220.533 415.426 220.115 415.419 219.696V212.569H416.827V219.629C416.835 220.291 416.759 220.952 416.604 221.595C416.483 222.108 416.188 222.564 415.77 222.884C415.244 223.225 414.622 223.384 413.997 223.338V223.338Z" fill="#D1D3D4"/>
<path d="M421.065 223.338C420.447 223.374 419.834 223.212 419.314 222.876C418.891 222.558 418.587 222.107 418.451 221.595C418.28 221.013 418.197 220.408 418.205 219.8V216.04C418.19 215.403 418.272 214.767 418.451 214.155C418.579 213.66 418.873 213.224 419.285 212.919C419.794 212.64 420.363 212.487 420.944 212.474C421.524 212.461 422.1 212.588 422.621 212.845C423.018 213.089 423.317 213.462 423.47 213.902C423.654 214.433 423.74 214.994 423.723 215.555V216.39H422.338V215.645C422.345 215.291 422.323 214.937 422.271 214.587C422.256 214.321 422.145 214.07 421.958 213.88C421.707 213.69 421.393 213.602 421.079 213.634C420.749 213.604 420.419 213.7 420.156 213.902C419.955 214.105 419.822 214.365 419.776 214.647C419.716 215.029 419.687 215.415 419.687 215.801V220.039C419.678 220.463 419.725 220.886 419.828 221.297C419.881 221.568 420.035 221.808 420.26 221.968C420.507 222.115 420.792 222.186 421.079 222.169C421.392 222.193 421.702 222.094 421.943 221.893C422.131 221.687 422.246 221.426 422.271 221.148C422.316 220.798 422.338 220.444 422.338 220.091V219.294H423.753V220.091C423.759 220.67 423.681 221.247 423.522 221.804C423.39 222.273 423.097 222.681 422.696 222.958C422.205 223.252 421.635 223.385 421.065 223.338V223.338Z" fill="#D1D3D4"/>
<path d="M426.352 223.263V213.738H424.542V212.681H429.577V213.738H427.834V223.271L426.352 223.263Z" fill="#D1D3D4"/>
<path d="M430.679 223.263V212.614H432.169V223.263H430.679Z" fill="#D1D3D4"/>
<path d="M436.592 223.338C435.994 223.37 435.399 223.227 434.879 222.928C434.443 222.643 434.117 222.218 433.956 221.722C433.758 221.132 433.664 220.512 433.68 219.89V215.928C433.664 215.311 433.757 214.695 433.956 214.111C434.126 213.634 434.451 213.227 434.879 212.956C435.402 212.665 435.995 212.526 436.592 212.554C437.191 212.527 437.786 212.672 438.305 212.971C438.729 213.245 439.051 213.651 439.221 214.126C439.423 214.704 439.519 215.315 439.504 215.928V219.979C439.511 220.596 439.415 221.21 439.221 221.796C439.051 222.285 438.73 222.708 438.305 223.003C437.779 223.28 437.184 223.397 436.592 223.338V223.338ZM436.592 222.176C436.912 222.197 437.229 222.11 437.493 221.93C437.701 221.754 437.843 221.513 437.895 221.245C437.975 220.896 438.01 220.538 438 220.18V215.511C438.01 215.166 437.977 214.82 437.903 214.483C437.849 214.225 437.707 213.993 437.501 213.828C437.232 213.659 436.916 213.581 436.6 213.604C436.283 213.584 435.969 213.662 435.699 213.828C435.491 213.993 435.346 214.224 435.289 214.483C435.207 214.829 435.17 215.185 435.177 215.541V220.21C435.17 220.568 435.207 220.926 435.289 221.275C435.344 221.543 435.489 221.785 435.699 221.96C435.959 222.153 436.276 222.252 436.6 222.243L436.592 222.176Z" fill="#D1D3D4"/>
<path d="M440.964 223.263V212.614H441.969L445 219.689V212.614H446.237V223.263H445.283L442.222 215.973V223.249L440.964 223.263Z" fill="#D1D3D4"/>
<path d="M380.32 128.005V117.914H382.636C383.039 117.907 383.44 117.957 383.828 118.062C384.138 118.15 384.423 118.308 384.662 118.524C384.899 118.739 385.071 119.014 385.161 119.321C385.281 119.681 385.339 120.059 385.332 120.438C385.334 120.8 385.279 121.159 385.168 121.503C385.081 121.785 384.912 122.035 384.683 122.22C384.453 122.406 384.174 122.519 383.88 122.546C384.233 122.606 384.563 122.76 384.836 122.992C385.109 123.224 385.313 123.525 385.429 123.864C385.551 124.265 385.612 124.681 385.608 125.1C385.607 125.502 385.557 125.902 385.459 126.292C385.36 126.623 385.199 126.931 384.982 127.2C384.761 127.452 384.486 127.65 384.178 127.781C383.805 127.922 383.408 127.991 383.009 127.982L380.32 128.005ZM381.728 122.129H382.569C382.888 122.135 383.205 122.077 383.5 121.957C383.609 121.902 383.706 121.825 383.785 121.732C383.864 121.638 383.924 121.53 383.962 121.414C384.065 121.099 384.113 120.769 384.103 120.438C384.14 120.072 384.065 119.703 383.887 119.381C383.812 119.273 383.715 119.183 383.602 119.116C383.489 119.049 383.363 119.007 383.232 118.993C382.848 118.93 382.459 118.9 382.07 118.904H381.728V122.129ZM381.728 126.999H382.674C382.905 127.029 383.14 127.004 383.36 126.927C383.58 126.849 383.778 126.721 383.94 126.552C384.195 126.118 384.314 125.618 384.282 125.115C384.288 124.755 384.23 124.397 384.111 124.058C384.013 123.786 383.823 123.557 383.575 123.41C383.273 123.248 382.933 123.17 382.592 123.186H381.75L381.728 126.999Z" fill="#A7A9AC"/>
<path d="M389.451 128.094C388.858 128.137 388.267 127.985 387.768 127.662C387.365 127.359 387.083 126.924 386.971 126.433C386.823 125.829 386.753 125.208 386.762 124.586V117.884H388.103V124.638C388.103 125.032 388.132 125.426 388.192 125.815C388.232 126.13 388.364 126.425 388.572 126.664C388.687 126.776 388.826 126.862 388.977 126.916C389.129 126.97 389.29 126.991 389.451 126.977C389.612 126.99 389.775 126.969 389.927 126.916C390.08 126.862 390.22 126.776 390.337 126.664C390.542 126.424 390.672 126.129 390.709 125.815C390.769 125.426 390.799 125.032 390.799 124.638V117.884H392.132V124.586C392.138 125.209 392.066 125.829 391.916 126.433C391.806 126.923 391.527 127.359 391.126 127.662C390.629 127.984 390.041 128.136 389.451 128.094V128.094Z" fill="#A7A9AC"/>
<path d="M395.982 128.094C395.474 128.118 394.97 127.988 394.537 127.722C394.143 127.467 393.837 127.098 393.658 126.664C393.452 126.178 393.336 125.658 393.316 125.13L394.552 124.787C394.578 125.148 394.63 125.507 394.708 125.86C394.783 126.162 394.931 126.441 395.14 126.672C395.248 126.78 395.377 126.865 395.519 126.92C395.662 126.976 395.814 127 395.967 126.992C396.121 127.003 396.275 126.982 396.42 126.929C396.566 126.877 396.698 126.794 396.809 126.686C397.001 126.435 397.098 126.124 397.084 125.808C397.095 125.429 396.985 125.056 396.771 124.743C396.55 124.442 396.301 124.162 396.027 123.909L394.336 122.419C394.022 122.162 393.768 121.839 393.591 121.473C393.425 121.067 393.347 120.631 393.361 120.192C393.339 119.878 393.385 119.564 393.494 119.268C393.603 118.973 393.773 118.704 393.994 118.48C394.226 118.267 394.499 118.104 394.796 117.998C395.092 117.891 395.407 117.845 395.721 117.861C396.081 117.856 396.438 117.912 396.779 118.025C397.061 118.124 397.316 118.287 397.524 118.502C397.746 118.733 397.913 119.01 398.015 119.314C398.15 119.685 398.23 120.074 398.253 120.468L397.062 120.788C397.038 120.482 396.988 120.178 396.913 119.88C396.849 119.621 396.712 119.385 396.518 119.202C396.293 119.016 396.005 118.926 395.714 118.949C395.566 118.938 395.418 118.957 395.279 119.006C395.139 119.055 395.011 119.131 394.902 119.232C394.796 119.34 394.715 119.47 394.665 119.613C394.615 119.756 394.597 119.908 394.612 120.058C394.607 120.314 394.658 120.569 394.761 120.803C394.89 121.035 395.061 121.239 395.267 121.406L396.965 122.896C397.36 123.235 397.7 123.635 397.97 124.08C398.275 124.571 398.43 125.14 398.417 125.718C398.429 126.166 398.318 126.609 398.097 126.999C397.903 127.354 397.607 127.642 397.248 127.826C396.856 128.021 396.42 128.113 395.982 128.094V128.094Z" fill="#A7A9AC"/>
<path d="M399.579 128.005V117.914H400.964V128.005H399.579Z" fill="#A7A9AC"/>
<path d="M402.595 128.005V117.914H403.548L406.416 124.616V117.914H407.54V128.005H406.624L403.72 121.123V128.005H402.595Z" fill="#A7A9AC"/>
<path d="M409.171 128.005V117.914H413.081V118.971H410.579V122.307H412.582V123.298H410.556V127.022H413.081V128.027L409.171 128.005Z" fill="#A7A9AC"/>
<path d="M416.618 127.9C416.108 127.925 415.602 127.795 415.166 127.528C414.772 127.273 414.466 126.904 414.287 126.471C414.075 125.986 413.956 125.465 413.937 124.936L415.189 124.601C415.205 124.959 415.262 125.314 415.36 125.659C415.427 125.961 415.571 126.24 415.777 126.471C416.008 126.673 416.304 126.784 416.611 126.784C416.918 126.784 417.214 126.673 417.445 126.471C417.647 126.224 417.749 125.91 417.728 125.592C417.736 125.212 417.624 124.839 417.408 124.527C417.181 124.219 416.918 123.939 416.626 123.693L414.935 122.203C414.625 121.946 414.371 121.626 414.191 121.265C414.019 120.858 413.938 120.418 413.952 119.976C413.933 119.661 413.981 119.346 414.093 119.051C414.204 118.755 414.377 118.487 414.6 118.264C414.831 118.056 415.1 117.896 415.393 117.794C415.686 117.691 415.996 117.649 416.306 117.668C416.667 117.66 417.027 117.712 417.371 117.824C417.652 117.924 417.907 118.087 418.115 118.301C418.331 118.535 418.496 118.812 418.6 119.113C418.732 119.485 418.815 119.873 418.845 120.267L417.646 120.587C417.63 120.28 417.58 119.975 417.497 119.679C417.431 119.422 417.297 119.188 417.11 119.001C416.885 118.816 416.596 118.725 416.306 118.748C416.157 118.733 416.007 118.751 415.865 118.8C415.724 118.849 415.595 118.927 415.487 119.031C415.382 119.14 415.302 119.271 415.251 119.413C415.2 119.555 415.178 119.706 415.189 119.857C415.182 120.115 415.238 120.371 415.352 120.602C415.479 120.835 415.651 121.04 415.859 121.205L417.564 122.695C417.96 123.037 418.299 123.439 418.57 123.886C418.867 124.38 419.017 124.949 419.002 125.525C419.017 125.971 418.911 126.414 418.696 126.806C418.495 127.157 418.198 127.444 417.84 127.632C417.46 127.818 417.041 127.91 416.618 127.9Z" fill="#A7A9AC"/>
<path d="M422.502 127.9C421.994 127.924 421.49 127.794 421.057 127.528C420.663 127.273 420.357 126.904 420.178 126.471C419.962 125.987 419.843 125.466 419.828 124.936L421.072 124.601C421.096 124.958 421.153 125.312 421.243 125.659C421.319 125.959 421.465 126.237 421.668 126.471C421.775 126.581 421.906 126.667 422.05 126.722C422.194 126.778 422.348 126.801 422.502 126.791C422.654 126.802 422.806 126.781 422.949 126.728C423.091 126.676 423.221 126.593 423.329 126.485C423.535 126.241 423.64 125.926 423.619 125.607C423.627 125.227 423.515 124.854 423.299 124.542C423.081 124.238 422.831 123.958 422.554 123.708L420.856 122.218C420.547 121.959 420.293 121.64 420.111 121.28C419.946 120.871 419.867 120.432 419.88 119.991C419.862 119.678 419.909 119.364 420.018 119.069C420.127 118.774 420.296 118.505 420.513 118.278C420.746 118.066 421.018 117.902 421.315 117.797C421.612 117.693 421.927 117.648 422.241 117.668C422.6 117.66 422.958 117.713 423.299 117.824C423.582 117.921 423.837 118.084 424.043 118.301C424.261 118.535 424.429 118.811 424.535 119.113C424.669 119.484 424.749 119.873 424.773 120.267L423.582 120.587C423.558 120.281 423.508 119.977 423.433 119.679C423.369 119.42 423.232 119.184 423.038 119.001C422.813 118.815 422.525 118.725 422.234 118.748C422.086 118.737 421.938 118.756 421.799 118.805C421.659 118.854 421.531 118.93 421.422 119.031C421.316 119.139 421.235 119.269 421.185 119.412C421.135 119.555 421.117 119.707 421.132 119.857C421.12 120.114 421.171 120.37 421.281 120.602C421.412 120.832 421.584 121.036 421.787 121.205L423.492 122.695C423.888 123.037 424.227 123.439 424.498 123.886C424.8 124.378 424.953 124.948 424.937 125.525C424.954 125.972 424.846 126.416 424.624 126.806C424.421 127.165 424.119 127.457 423.753 127.647C423.364 127.835 422.934 127.922 422.502 127.9Z" fill="#A7A9AC"/>
<path d="M382.852 142.847C382.263 142.886 381.678 142.726 381.192 142.393C380.792 142.091 380.502 141.668 380.365 141.186C380.204 140.635 380.124 140.063 380.127 139.488V135.929C380.124 135.327 380.204 134.728 380.365 134.149C380.493 133.671 380.786 133.255 381.192 132.972C381.675 132.705 382.216 132.559 382.769 132.546C383.321 132.533 383.868 132.654 384.364 132.898C384.735 133.133 385.017 133.483 385.168 133.896C385.339 134.396 385.422 134.923 385.414 135.452V136.286H384.081V135.541C384.081 135.208 384.059 134.874 384.014 134.543C383.998 134.295 383.895 134.061 383.724 133.881C383.482 133.701 383.182 133.616 382.882 133.642C382.572 133.618 382.263 133.711 382.018 133.903C381.811 134.099 381.681 134.364 381.653 134.648C381.6 134.998 381.573 135.351 381.571 135.705V139.712C381.558 140.115 381.6 140.519 381.698 140.911C381.756 141.162 381.901 141.383 382.108 141.536C382.334 141.666 382.592 141.73 382.852 141.723C382.999 141.74 383.148 141.726 383.289 141.683C383.43 141.639 383.56 141.567 383.672 141.469C383.851 141.277 383.961 141.031 383.984 140.769C384.029 140.419 384.052 140.065 384.051 139.712V138.967H385.384V139.712C385.397 140.262 385.319 140.811 385.154 141.335C385.024 141.758 384.763 142.129 384.409 142.393C383.951 142.704 383.406 142.863 382.852 142.847V142.847Z" fill="#A7A9AC"/>
<path d="M389.309 142.847C388.738 142.872 388.172 142.733 387.678 142.445C387.274 142.172 386.971 141.775 386.814 141.313C386.626 140.749 386.535 140.157 386.546 139.563V135.75C386.531 135.17 386.622 134.592 386.814 134.044C386.983 133.605 387.292 133.233 387.693 132.987C388.195 132.734 388.75 132.602 389.313 132.602C389.876 132.602 390.43 132.734 390.933 132.987C391.331 133.238 391.636 133.612 391.804 134.052C391.991 134.601 392.079 135.178 392.065 135.757V139.6C392.08 140.184 391.991 140.767 391.804 141.32C391.641 141.783 391.336 142.182 390.933 142.46C390.442 142.747 389.877 142.882 389.309 142.847V142.847ZM389.309 141.79C389.612 141.814 389.913 141.729 390.158 141.551C390.362 141.394 390.498 141.165 390.538 140.911C390.62 140.592 390.657 140.264 390.65 139.935V135.43C390.657 135.106 390.62 134.782 390.538 134.469C390.492 134.221 390.357 133.998 390.158 133.843C389.898 133.704 389.608 133.631 389.313 133.631C389.018 133.631 388.728 133.704 388.468 133.843C388.265 133.999 388.122 134.22 388.065 134.469C387.996 134.784 387.964 135.107 387.969 135.43V139.898C387.964 140.226 387.996 140.553 388.065 140.874C388.117 141.129 388.26 141.357 388.468 141.514C388.707 141.702 389.005 141.8 389.309 141.79V141.79Z" fill="#A7A9AC"/>
<path d="M393.42 142.743L393.614 132.659H394.991L396.779 140.851L398.566 132.659H399.922L400.108 142.743H398.976L398.864 135.422L397.159 142.743H396.362L394.708 135.422L394.597 142.743H393.42Z" fill="#A7A9AC"/>
<path d="M401.642 142.743L401.828 132.659H403.221L405.001 140.851L406.788 132.659H408.151L408.345 142.743H407.212L407.093 135.422L405.425 142.743H404.628L402.901 135.422L402.796 142.743H401.642Z" fill="#A7A9AC"/>
<path d="M412.5 142.847C411.906 142.882 411.315 142.731 410.81 142.415C410.411 142.11 410.132 141.676 410.02 141.186C409.863 140.581 409.791 139.957 409.804 139.332V132.629H411.152V139.377C411.146 139.776 411.173 140.174 411.234 140.568C411.271 140.881 411.404 141.175 411.614 141.41C411.865 141.609 412.176 141.717 412.496 141.717C412.817 141.717 413.128 141.609 413.379 141.41C413.58 141.171 413.707 140.879 413.744 140.568C413.813 140.175 413.846 139.776 413.841 139.377V132.629H415.174V139.332C415.189 139.958 415.113 140.582 414.95 141.186C414.844 141.667 414.582 142.099 414.206 142.415C413.698 142.738 413.1 142.89 412.5 142.847V142.847Z" fill="#A7A9AC"/>
<path d="M416.648 142.743V132.659H417.609L420.484 139.362V132.659H421.645V142.743H420.774L417.877 135.854V142.743H416.648Z" fill="#A7A9AC"/>
<path d="M423.314 142.743V132.659H424.684V142.743H423.314Z" fill="#A7A9AC"/>
<path d="M428.847 142.847C428.258 142.885 427.674 142.725 427.186 142.393C426.791 142.087 426.502 141.665 426.36 141.186C426.201 140.635 426.123 140.063 426.129 139.488V135.929C426.12 135.327 426.197 134.728 426.36 134.149C426.498 133.676 426.789 133.262 427.186 132.972C427.681 132.659 428.263 132.513 428.847 132.555C429.366 132.527 429.882 132.646 430.337 132.898C430.698 133.141 430.976 133.489 431.133 133.896C431.304 134.396 431.387 134.923 431.379 135.452V136.286H430.039V135.541C430.044 135.208 430.026 134.875 429.986 134.543C429.962 134.295 429.854 134.061 429.681 133.881C429.443 133.7 429.145 133.615 428.847 133.642C428.534 133.618 428.223 133.711 427.976 133.903C427.768 134.098 427.64 134.363 427.618 134.648C427.559 134.997 427.529 135.351 427.529 135.705V139.712C427.523 140.115 427.565 140.518 427.655 140.911C427.716 141.162 427.864 141.384 428.073 141.536C428.298 141.667 428.556 141.732 428.817 141.723C428.965 141.738 429.114 141.723 429.256 141.68C429.398 141.636 429.53 141.565 429.644 141.469C429.815 141.273 429.921 141.029 429.949 140.769C429.995 140.419 430.015 140.065 430.009 139.712V138.967H431.349V139.712C431.357 140.261 431.282 140.809 431.126 141.335C430.994 141.757 430.733 142.126 430.381 142.393C429.927 142.694 429.392 142.852 428.847 142.847V142.847Z" fill="#A7A9AC"/>
<path d="M432.183 142.743L434.306 132.659H435.669L437.791 142.743H436.451L435.996 140.196H434.016L433.531 142.743H432.183ZM434.179 139.191H435.862L435.013 134.648L434.179 139.191Z" fill="#A7A9AC"/>
<path d="M439.571 142.743V133.694H437.903V132.637H442.677V133.694H441.016V142.743H439.571Z" fill="#A7A9AC"/>
<path d="M443.69 142.743V132.659H445.067V142.743H443.69Z" fill="#A7A9AC"/>
<path d="M449.283 142.847C448.707 142.873 448.136 142.733 447.637 142.445C447.233 142.172 446.93 141.775 446.773 141.313C446.587 140.749 446.497 140.157 446.505 139.563V135.75C446.495 135.17 446.589 134.592 446.78 134.044C446.944 133.604 447.251 133.232 447.652 132.987C448.148 132.707 448.714 132.575 449.283 132.607C449.845 132.578 450.404 132.712 450.891 132.994C451.285 133.245 451.588 133.616 451.755 134.052C451.947 134.599 452.038 135.177 452.023 135.757V139.608C452.039 140.19 451.948 140.771 451.755 141.32C451.596 141.785 451.293 142.186 450.891 142.467C450.404 142.75 449.844 142.883 449.283 142.847ZM449.283 141.79C449.58 141.813 449.876 141.728 450.117 141.551C450.322 141.393 450.463 141.166 450.511 140.911C450.578 140.59 450.608 140.263 450.601 139.935V135.43C450.608 135.107 450.578 134.785 450.511 134.469C450.457 134.22 450.318 133.999 450.117 133.843C449.868 133.687 449.576 133.614 449.283 133.635C448.98 133.615 448.679 133.688 448.419 133.843C448.22 134 448.083 134.221 448.031 134.469C447.962 134.784 447.929 135.107 447.934 135.43V139.898C447.929 140.226 447.962 140.553 448.031 140.874C448.082 141.126 448.219 141.352 448.419 141.514C448.667 141.701 448.972 141.799 449.283 141.79V141.79Z" fill="#A7A9AC"/>
<path d="M453.408 142.743V132.659H454.376L457.236 139.362V132.659H458.376V142.743H457.475L454.578 135.854V142.743H453.408Z" fill="#A7A9AC"/>
<path d="M519.794 237.048H492.343V237.421H519.794V237.048Z" fill="#D1D3D4"/>
<path d="M487.07 237.048H430.59V237.421H487.07V237.048Z" fill="#D1D3D4"/>
<path d="M425.302 237.048H375.681V237.421H425.302V237.048Z" fill="#D1D3D4"/>
<path d="M519.794 244.972H412.105V245.345H519.794V244.972Z" fill="#D1D3D4"/>
<path d="M407.347 244.972H375.681V245.345H407.347V244.972Z" fill="#D1D3D4"/>
<path d="M519.794 252.889H504.49V253.261H519.794V252.889Z" fill="#D1D3D4"/>
<path d="M499.209 252.889H433.226V253.261H499.209V252.889Z" fill="#D1D3D4"/>
<path d="M427.417 252.889H375.681V253.261H427.417V252.889Z" fill="#D1D3D4"/>
<path d="M519.794 260.805H511.885V261.178H519.794V260.805Z" fill="white"/>
<path d="M506.597 260.805H490.764V261.178H506.597V260.805Z" fill="#D1D3D4"/>
<path d="M486.541 260.805H412.634V261.178H486.541V260.805Z" fill="#D1D3D4"/>
<path d="M407.875 260.805H375.681V261.178H407.875V260.805Z" fill="#D1D3D4"/>
<path d="M507.126 118.159L484.434 126.612L492.872 130.306L479.146 148.261L469.115 137.172L433.755 172.011L412.634 159.864L379.158 189.795H404.8L415.799 177.291L435.862 187.323L465.95 153.534L483.369 160.929L498.159 133.471L508.191 138.751L507.126 118.159Z" fill="#A7A9AC"/>
<path d="M489.632 186.667C501.145 186.667 510.477 177.335 510.477 165.822C510.477 154.31 501.145 144.977 489.632 144.977C478.12 144.977 468.787 154.31 468.787 165.822C468.787 177.335 478.12 186.667 489.632 186.667Z" fill="white" stroke="#A7A9AC" stroke-width="0.744733" stroke-miterlimit="10"/>
<path d="M489.632 183.77C499.549 183.77 507.588 175.731 507.588 165.815C507.588 155.898 499.549 147.859 489.632 147.859C479.716 147.859 471.677 155.898 471.677 165.815C471.677 175.731 479.716 183.77 489.632 183.77Z" fill="white" stroke="#A7A9AC" stroke-width="0.744733" stroke-miterlimit="10"/>
<path d="M490.034 182.497V179.324C489.114 179.339 488.2 179.157 487.356 178.791C486.511 178.425 485.753 177.883 485.134 177.202C484.047 175.901 483.461 173.898 483.376 171.192L488.225 170.447C488.225 171.341 488.32 172.232 488.508 173.106C488.604 173.665 488.863 174.183 489.252 174.595C489.58 174.892 490.009 175.052 490.451 175.042C490.682 175.07 490.916 175.028 491.122 174.92C491.329 174.812 491.497 174.645 491.606 174.439C491.781 174.037 491.87 173.603 491.866 173.165C491.896 172.217 491.636 171.282 491.122 170.484C490.541 169.652 489.852 168.901 489.074 168.25L486.839 166.314C486.225 165.767 485.647 165.18 485.112 164.556C483.948 163.173 483.336 161.41 483.391 159.604C483.34 158.74 483.467 157.875 483.763 157.061C484.058 156.248 484.518 155.504 485.112 154.875C486.376 153.685 488.031 152.997 489.766 152.938V149.959H491.375V152.938C492.425 152.943 493.454 153.231 494.354 153.772C495.052 154.246 495.617 154.893 495.992 155.649C496.357 156.379 496.609 157.16 496.737 157.965C496.867 158.704 496.946 159.45 496.975 160.199L492.06 160.795C492.057 160.13 492.009 159.466 491.918 158.807C491.883 158.337 491.73 157.883 491.472 157.489C491.348 157.331 491.186 157.207 491 157.132C490.815 157.056 490.613 157.03 490.414 157.057C490.175 157.046 489.937 157.104 489.729 157.222C489.521 157.341 489.351 157.516 489.237 157.727C488.997 158.131 488.867 158.59 488.858 159.06C488.807 159.942 489.071 160.813 489.602 161.518C490.126 162.143 490.693 162.73 491.3 163.275L493.415 165.145C494.129 165.801 494.791 166.51 495.396 167.267C496.001 168.014 496.486 168.851 496.834 169.747C497.218 170.76 497.402 171.837 497.377 172.92C497.392 173.986 497.152 175.04 496.677 175.995C496.222 176.913 495.537 177.698 494.689 178.274C493.751 178.87 492.683 179.233 491.576 179.332V182.504L490.034 182.497Z" fill="#D8D8D8"/>
<path d="M386.226 166.038H380.953V189.795H386.226V166.038Z" fill="#D8D8D8"/>
<path d="M395.729 174.58H390.456V189.788H395.729V174.58Z" fill="#D8D8D8"/>
<path d="M405.239 175.094H399.966V189.795H405.239V175.094Z" fill="#D8D8D8"/>
<path d="M414.742 166.038H409.469V189.795H414.742V166.038Z" fill="#D8D8D8"/>
<path d="M424.237 171.222H418.964V189.795H424.237V171.222Z" fill="#D8D8D8"/>
<path d="M433.74 173.553H428.467V189.803H433.74V173.553Z" fill="#D8D8D8"/>
<path d="M443.243 166.038H437.97V189.795H443.243V166.038Z" fill="#D8D8D8"/>
<path d="M452.753 159.053H447.48V189.795H452.753V159.053Z" fill="#D8D8D8"/>
<path d="M462.256 151.806H456.983V189.795H462.256V151.806Z" fill="#D8D8D8"/>
<path d="M482.378 284.652H420.886V290.803H482.378V284.652Z" fill="#D8D8D8"/>
<path d="M501.377 295.547H420.886V301.699H501.377V295.547Z" fill="#D8D8D8"/>
<path d="M482.378 332.024H420.886V338.176H482.378V332.024Z" fill="#D8D8D8"/>
<path d="M501.377 342.927H420.886V349.079H501.377V342.927Z" fill="#D8D8D8"/>
<path d="M405.373 274.367H380.067C377.287 274.367 375.033 276.621 375.033 279.401V305.028C375.033 307.808 377.287 310.062 380.067 310.062H405.373C408.153 310.062 410.407 307.808 410.407 305.028V279.401C410.407 276.621 408.153 274.367 405.373 274.367Z" fill="#D8D8D8"/>
<path opacity="0.29" d="M392.72 301.073C397.615 301.073 401.582 297.105 401.582 292.211C401.582 287.316 397.615 283.349 392.72 283.349C387.826 283.349 383.858 287.316 383.858 292.211C383.858 297.105 387.826 301.073 392.72 301.073Z" fill="black"/>
<path d="M405.373 320.451H380.067C377.287 320.451 375.033 322.705 375.033 325.486V351.112C375.033 353.892 377.287 356.146 380.067 356.146H405.373C408.153 356.146 410.407 353.892 410.407 351.112V325.486C410.407 322.705 408.153 320.451 405.373 320.451Z" fill="#D8D8D8"/>
<path opacity="0.29" d="M392.72 347.157C397.615 347.157 401.582 343.189 401.582 338.295C401.582 333.4 397.615 329.433 392.72 329.433C387.826 329.433 383.858 333.4 383.858 338.295C383.858 343.189 387.826 347.157 392.72 347.157Z" fill="black"/>
<path opacity="0.2" d="M562.951 320.444C567.846 320.444 571.813 316.476 571.813 311.581C571.813 306.687 567.846 302.719 562.951 302.719C558.057 302.719 554.089 306.687 554.089 311.581C554.089 316.476 558.057 320.444 562.951 320.444Z" fill="black"/>
<path d="M376.932 315.119H520.337" stroke="#A7A9AC" stroke-width="0.744733" stroke-miterlimit="10"/>
<path d="M514.826 55.1326H526.027" stroke="#A7A9AC" stroke-width="0.744733" stroke-miterlimit="10"/>
<path d="M514.826 60.4351H526.027" stroke="#A7A9AC" stroke-width="0.744733" stroke-miterlimit="10"/>
<path d="M514.826 65.7301H526.027" stroke="#A7A9AC" stroke-width="0.744733" stroke-miterlimit="10"/>
<path d="M510.336 51.6025H373.923V69.2676H510.336V51.6025Z" fill="white" stroke="#A7A9AC" stroke-width="0.744733" stroke-miterlimit="10"/>
<path d="M380.916 63.3768L377.833 67.2643" stroke="#A7A9AC" stroke-width="1.48947" stroke-linecap="round" stroke-linejoin="round"/>
<path d="M383.173 60.5393L380.916 63.3768" stroke="#A7A9AC" stroke-width="0.744733" stroke-miterlimit="10"/>
<path d="M394.537 51.7217V69.357" stroke="#A7A9AC" stroke-width="0.744733" stroke-miterlimit="10"/>
<path d="M137.828 286.983C137.835 286.958 137.833 286.931 137.822 286.908C137.811 286.885 137.792 286.866 137.768 286.856C137.744 286.846 137.718 286.846 137.694 286.856C137.67 286.866 137.651 286.885 137.642 286.908C134.68 294.003 132.337 301.342 130.641 308.841C128.929 316.344 127.638 323.937 126.776 331.585L126.24 337.334C126.15 338.295 126.046 339.248 125.972 340.216L125.815 343.084C125.741 345.012 125.614 346.926 125.562 348.855L125.614 354.642L125.674 357.516C125.674 358.485 125.793 359.445 125.86 360.399C126.001 362.327 126.121 364.241 126.292 366.163C126.664 369.998 127.245 373.796 127.826 377.587C127.83 377.612 127.842 377.635 127.861 377.651C127.88 377.668 127.905 377.677 127.93 377.676C127.93 377.676 128.042 377.676 128.027 377.58C128.027 375.658 127.945 373.744 127.9 371.83C127.856 369.916 127.677 368.002 127.699 366.088C127.722 364.174 127.699 362.26 127.632 360.354V348.907L127.781 343.18L127.848 340.321C127.848 339.367 127.953 338.414 128.005 337.461L128.355 331.741C129.009 324.128 130.091 316.557 131.594 309.064C133.03 301.537 135.116 294.149 137.828 286.983V286.983Z" fill="#2F2E41"/>
<path d="M138.639 316.914C138.644 316.901 138.646 316.888 138.646 316.875C138.645 316.862 138.642 316.849 138.637 316.838C138.631 316.826 138.623 316.815 138.613 316.807C138.604 316.798 138.592 316.791 138.58 316.787C138.554 316.777 138.526 316.778 138.501 316.789C138.476 316.8 138.456 316.821 138.446 316.847C136.831 321.611 135.474 326.459 134.38 331.369C133.3 336.298 132.495 341.283 131.967 346.301C131.46 351.305 130.909 356.325 130.835 361.359C130.708 366.402 130.887 371.449 131.371 376.47C131.371 376.498 131.382 376.524 131.401 376.544C131.421 376.563 131.447 376.574 131.475 376.574C131.503 376.574 131.529 376.563 131.549 376.544C131.568 376.524 131.579 376.498 131.579 376.47C132.16 371.45 132.51 366.453 132.86 361.456C133.21 356.459 133.263 351.432 133.605 346.435C133.91 341.441 134.497 336.468 135.363 331.54C136.191 326.609 137.284 321.727 138.639 316.914V316.914Z" fill="#2F2E41"/>
<path d="M155.24 327.437C155.219 327.423 155.194 327.415 155.169 327.415C155.144 327.415 155.119 327.423 155.098 327.437C150.949 330.108 147.211 333.369 144.002 337.118C142.392 339.003 140.943 341.018 139.667 343.143L138.781 344.811L138.081 346.554C137.841 347.122 137.634 347.704 137.463 348.297C137.284 348.9 137.083 349.488 136.927 350.084C135.655 354.874 134.884 359.784 134.625 364.733C134.381 369.652 134.565 374.584 135.176 379.471C135.184 379.493 135.196 379.513 135.213 379.529C135.23 379.544 135.251 379.555 135.273 379.561C135.299 379.559 135.324 379.549 135.343 379.531C135.362 379.513 135.374 379.49 135.378 379.464L136.651 364.867C137.011 360.045 137.635 355.247 138.52 350.494C138.662 349.913 138.833 349.339 138.982 348.758C139.118 348.173 139.287 347.596 139.488 347.031L140.084 345.348L140.829 343.761C141.982 341.641 143.309 339.621 144.798 337.722C147.768 333.856 151.279 330.44 155.225 327.578V327.578C155.242 327.56 155.252 327.536 155.252 327.511C155.252 327.486 155.242 327.462 155.225 327.444L155.24 327.437Z" fill="#2F2E41"/>
<path d="M147.211 346.197C145.051 347.765 143.318 349.849 142.17 352.259C140.95 354.614 140 357.1 139.34 359.669C139.138 360.309 138.982 360.957 138.841 361.598L138.386 363.541C138.145 364.844 137.978 366.159 137.887 367.481C137.887 368.799 137.835 370.125 137.887 371.45C137.983 372.773 138.157 374.088 138.409 375.39C138.409 375.41 138.416 375.429 138.43 375.443C138.444 375.457 138.463 375.465 138.483 375.465C138.51 375.47 138.537 375.465 138.56 375.451C138.584 375.437 138.601 375.416 138.61 375.39C138.914 374.108 139.148 372.81 139.31 371.503C139.511 370.222 139.712 368.948 139.868 367.667C140.025 366.386 140.218 365.128 140.323 363.847C140.418 362.565 140.599 361.291 140.866 360.034C141.294 357.507 142.003 355.037 142.981 352.668C143.876 350.248 145.328 348.072 147.219 346.316V346.316C147.236 346.298 147.246 346.274 147.246 346.249C147.246 346.224 147.236 346.2 147.219 346.182V346.182L147.211 346.197Z" fill="#2F2E41"/>
<path d="M123.931 360.816C123.387 354.329 122.322 347.909 121.31 341.505C120.297 335.1 119.195 328.703 118.01 322.328C116.826 315.953 115.523 309.615 114.153 303.263C114.146 303.236 114.13 303.213 114.109 303.197C114.087 303.181 114.061 303.172 114.034 303.173C114.007 303.182 113.985 303.199 113.97 303.222C113.955 303.245 113.949 303.273 113.952 303.3C115.061 309.66 116.067 316.087 117.012 322.507C117.958 328.926 118.897 335.323 119.701 341.75C120.505 348.178 121.108 354.619 121.935 361.032L124.296 380.32C124.303 380.342 124.316 380.362 124.333 380.378C124.35 380.393 124.37 380.404 124.393 380.41C124.418 380.41 124.443 380.401 124.462 380.384C124.481 380.368 124.493 380.345 124.497 380.32V380.32C124.571 378.697 124.579 377.066 124.616 375.435C124.653 373.804 124.549 372.195 124.519 370.564C124.46 367.287 124.184 364.055 123.931 360.816Z" fill="#2F2E41"/>
<path d="M120.051 360.719C119.701 358.157 119.224 355.603 118.74 353.063L117.832 349.265C117.534 348.006 117.258 346.748 116.886 345.541C115.596 340.511 113.939 335.582 111.926 330.795L111.181 329.016L110.31 327.265C109.759 326.104 109.103 324.979 108.47 323.847C107.197 321.574 105.624 319.483 103.793 317.629C103.775 317.611 103.751 317.602 103.726 317.602C103.701 317.602 103.677 317.611 103.659 317.629V317.629C103.642 317.647 103.632 317.671 103.632 317.696C103.632 317.721 103.642 317.745 103.659 317.763V317.763C105.351 319.68 106.776 321.817 107.897 324.115C108.455 325.27 109.059 326.402 109.535 327.593L110.28 329.351L110.958 331.145C112.745 335.951 114.183 340.879 115.262 345.891C115.858 348.379 116.253 350.926 116.752 353.435L117.355 357.233C117.578 358.492 117.847 359.743 118.025 361.017C118.427 363.556 118.889 366.081 119.336 368.606C119.783 371.13 120.192 373.692 120.721 376.232C120.729 376.256 120.743 376.278 120.763 376.294C120.783 376.31 120.807 376.319 120.833 376.321C120.858 376.317 120.881 376.305 120.897 376.286C120.914 376.266 120.923 376.242 120.922 376.217C120.922 373.633 120.922 371.004 120.744 368.449C120.565 365.895 120.319 363.288 120.051 360.719Z" fill="#2F2E41"/>
<path d="M114.689 361.024C113.49 357.628 112.105 354.322 110.593 351.037C109.064 347.784 107.341 344.625 105.432 341.579C105.423 341.57 105.412 341.562 105.401 341.557C105.389 341.552 105.377 341.549 105.364 341.549C105.351 341.548 105.338 341.551 105.326 341.555C105.314 341.56 105.303 341.567 105.294 341.575C105.285 341.584 105.277 341.595 105.272 341.607C105.267 341.618 105.264 341.631 105.264 341.644C105.263 341.656 105.265 341.669 105.27 341.681C105.275 341.693 105.282 341.704 105.29 341.713V341.713C106.94 344.89 108.397 348.163 109.654 351.514C110.973 354.828 112.164 358.217 113.147 361.605C114.13 364.994 114.883 368.494 115.799 371.927C116.715 375.36 117.519 378.808 118.584 382.271C118.587 382.293 118.598 382.313 118.614 382.328C118.63 382.343 118.651 382.352 118.673 382.353C118.702 382.353 118.729 382.343 118.75 382.323C118.77 382.304 118.783 382.277 118.785 382.249C118.807 378.627 118.45 375.013 117.72 371.465C116.994 367.909 115.98 364.417 114.689 361.024V361.024Z" fill="#2F2E41"/>
<path d="M114.458 372.366C113.799 370.255 112.841 368.249 111.613 366.409C110.465 364.508 109.068 362.769 107.458 361.24C106.636 360.504 105.754 359.839 104.821 359.252C103.906 358.636 102.901 358.166 101.842 357.859C101.824 357.848 101.804 357.842 101.783 357.842C101.762 357.842 101.741 357.848 101.723 357.859C101.709 357.88 101.701 357.905 101.701 357.93C101.701 357.955 101.709 357.98 101.723 358.001V358.001C103.667 358.94 105.387 360.286 106.765 361.948C108.148 363.522 109.313 365.276 110.228 367.161C111.211 369.03 111.717 371.086 112.566 372.999C112.954 373.983 113.311 374.966 113.765 375.978C114.13 377.001 114.565 377.996 115.069 378.957V378.957C115.076 378.973 115.087 378.986 115.102 378.996C115.116 379.005 115.133 379.01 115.151 379.009C115.163 379.012 115.176 379.011 115.188 379.008C115.2 379.005 115.211 378.999 115.221 378.992C115.231 378.984 115.239 378.974 115.245 378.963C115.251 378.952 115.254 378.94 115.255 378.928C115.293 377.819 115.254 376.709 115.136 375.606C114.957 374.526 114.726 373.446 114.458 372.366Z" fill="#2F2E41"/>
<path d="M114.86 312.527C111.626 311.62 108.7 309.847 106.4 307.399C104.099 304.952 102.51 301.922 101.805 298.638C99.3399 287.199 107.249 292.099 100.159 274.166C93.0693 256.233 94.7151 252.085 97.1802 246.909C99.6453 241.733 100.986 243.371 103.138 250.178C105.29 256.985 113.199 267.612 116.283 287.467C119.366 307.321 114.86 312.527 114.86 312.527Z" fill="#BCBEC0"/>
<path d="M135.824 293.239C135.824 293.239 128.749 290.781 128.474 277.45C128.198 264.12 133.687 266.86 134.469 250.23C135.251 233.6 136.376 221.93 139.362 221.633C142.348 221.335 150.257 229.825 152.983 248.316C155.709 266.808 149.431 279.029 143.987 284.51C138.543 289.992 135.824 293.239 135.824 293.239Z" fill="#BCBEC0"/>
<path d="M111.047 328.584C111.047 328.584 109.416 318.79 106.154 314.158C102.892 309.526 95.8099 305.445 91.1776 296.419C86.5454 287.392 81.3844 283.088 81.6525 295.875C81.9206 308.662 87.6848 315.238 94.7151 319.602C101.745 323.966 111.047 328.584 111.047 328.584Z" fill="#BCBEC0"/>
<path d="M108.061 345.467C108.061 345.467 101.529 332.94 91.9969 323.683C82.4643 314.426 74.868 309.809 77.5714 314.426C80.2748 319.044 83.5292 318.775 88.1615 326.945C92.7937 335.115 91.4383 341.095 97.9696 345.72C104.501 350.345 108.061 345.467 108.061 345.467Z" fill="#BCBEC0"/>
<path d="M107.242 361.523C106.966 360.704 106.69 354.709 97.4334 349.816C88.1764 344.923 79.4258 346.837 80.5578 349.265C81.6898 351.693 87.3572 355.804 93.0767 358.261C98.7963 360.719 107.242 361.523 107.242 361.523Z" fill="#BCBEC0"/>
<path d="M135.281 329.127C135.281 329.127 131.192 323.959 133.374 313.071C135.556 302.183 140.449 304.879 145.938 299.182C151.427 293.484 150.302 292.65 155.746 286.663C161.19 280.675 166.083 277.406 168.265 279.856C170.447 282.306 167.207 289.925 163.908 294.289C160.609 298.653 155.441 300.813 153.02 306.257C150.6 311.701 151.657 320.406 145.394 324.495C139.131 328.584 135.281 329.127 135.281 329.127Z" fill="#BCBEC0"/>
<path d="M148.894 332.151L165.778 312.788C172.905 304.596 175.571 298.362 175.846 303.806C176.122 309.25 178.297 313.6 172.577 320.689C166.857 327.779 148.894 332.151 148.894 332.151Z" fill="#BCBEC0"/>
<path d="M143.733 350.084C143.733 350.084 143.458 345.735 158.971 335.659C174.483 325.582 181.022 323.683 179.391 327.772C177.76 331.86 170.916 335.964 163.603 343.285C156.29 350.605 143.733 350.084 143.733 350.084Z" fill="#BCBEC0"/>
<path d="M115.508 311.552C115.464 311.549 115.422 311.533 115.389 311.505C115.355 311.476 115.332 311.438 115.322 311.395C115.322 311.202 111.65 291.712 107.912 277.994C104.173 264.276 101.678 255.771 101.656 255.652C101.642 255.605 101.648 255.554 101.672 255.51C101.695 255.467 101.735 255.435 101.783 255.421C101.83 255.407 101.881 255.413 101.924 255.437C101.968 255.46 102 255.5 102.014 255.548C102.014 255.63 104.538 264.142 108.277 277.89C112.015 291.637 115.657 311.127 115.724 311.321C115.733 311.369 115.722 311.419 115.694 311.459C115.666 311.5 115.623 311.528 115.575 311.537L115.508 311.552Z" fill="#2F2E41"/>
<path d="M135.199 293.589H135.139C135.093 293.572 135.054 293.538 135.032 293.493C135.01 293.449 135.006 293.398 135.02 293.35C135.087 293.142 141.656 272.036 143.8 259.42C145.752 247.944 143.979 239.104 142.803 233.25L142.445 231.441C142.441 231.416 142.442 231.391 142.447 231.367C142.453 231.343 142.463 231.32 142.478 231.3C142.492 231.28 142.511 231.263 142.532 231.25C142.553 231.237 142.577 231.228 142.601 231.225C142.65 231.216 142.7 231.227 142.74 231.255C142.781 231.283 142.808 231.325 142.817 231.374C142.922 231.932 143.048 232.535 143.175 233.176C144.352 239.052 146.154 247.936 144.173 259.487C142.028 272.148 135.445 293.253 135.378 293.462C135.365 293.499 135.341 293.532 135.309 293.554C135.277 293.577 135.238 293.589 135.199 293.589Z" fill="#2F2E41"/>
<path d="M110.22 328.383C110.187 328.381 110.155 328.372 110.126 328.355C110.098 328.338 110.074 328.314 110.057 328.286C107.136 323.253 103.787 318.482 100.047 314.024C98.5207 312.222 97.1132 310.658 95.7429 309.146C91.833 304.804 88.7349 301.379 86.6869 296.277C86.6748 296.254 86.6675 296.229 86.6657 296.203C86.6638 296.177 86.6674 296.151 86.6762 296.127C86.685 296.102 86.6988 296.08 86.7167 296.061C86.7347 296.042 86.7563 296.028 86.7803 296.018C86.8043 296.008 86.8301 296.003 86.856 296.004C86.882 296.004 86.9075 296.01 86.931 296.022C86.9544 296.033 86.9753 296.049 86.9923 296.068C87.0093 296.088 87.0219 296.111 87.0295 296.136C89.0626 301.177 92.1309 304.581 96.0259 308.893C97.3887 310.382 98.8037 311.976 100.338 313.786C104.089 318.262 107.45 323.05 110.384 328.1C110.409 328.142 110.415 328.193 110.403 328.24C110.39 328.287 110.36 328.328 110.317 328.353C110.29 328.374 110.255 328.384 110.22 328.383V328.383Z" fill="#2F2E41"/>
<path d="M135.281 329.313C135.256 329.31 135.233 329.301 135.211 329.288C135.19 329.276 135.172 329.259 135.157 329.238C135.142 329.218 135.132 329.195 135.126 329.171C135.121 329.147 135.12 329.122 135.124 329.097C135.124 328.971 137.359 315.916 142.512 309.146C144.523 306.495 147.293 303.307 150.22 299.926C154.837 294.601 159.611 289.09 162.136 284.942C162.148 284.921 162.164 284.903 162.184 284.888C162.204 284.874 162.226 284.863 162.25 284.858C162.273 284.852 162.298 284.852 162.322 284.856C162.346 284.86 162.369 284.869 162.389 284.883C162.431 284.908 162.462 284.948 162.475 284.995C162.487 285.043 162.48 285.093 162.456 285.136C159.954 289.306 155.165 294.817 150.54 300.172C147.614 303.546 144.851 306.733 142.847 309.377C137.768 316.08 135.556 329.03 135.534 329.164C135.529 329.192 135.518 329.218 135.502 329.241C135.486 329.264 135.466 329.283 135.442 329.297C135.418 329.311 135.391 329.32 135.363 329.323C135.335 329.326 135.307 329.322 135.281 329.313V329.313Z" fill="#2F2E41"/>
<path d="M106.601 361.411C106.567 361.421 106.531 361.421 106.497 361.411C106.407 361.352 97.2696 355.416 90.8574 352.192C90.8349 352.181 90.8148 352.166 90.7981 352.147C90.7814 352.129 90.7686 352.107 90.7603 352.084C90.752 352.06 90.7484 352.035 90.7497 352.01C90.7511 351.985 90.7573 351.961 90.768 351.938C90.7788 351.916 90.7939 351.896 90.8124 351.879C90.831 351.862 90.8526 351.85 90.8761 351.841C90.8997 351.833 90.9246 351.829 90.9495 351.831C90.9744 351.832 90.9988 351.838 91.0213 351.849C97.4855 355.089 106.661 361.039 106.728 361.099C106.748 361.112 106.766 361.13 106.78 361.15C106.794 361.171 106.804 361.194 106.808 361.218C106.813 361.242 106.813 361.267 106.808 361.292C106.803 361.316 106.794 361.339 106.78 361.359C106.757 361.382 106.728 361.399 106.697 361.408C106.666 361.417 106.633 361.418 106.601 361.411V361.411Z" fill="#2F2E41"/>
<path d="M159.053 416.097C158.449 399.586 140.092 388.542 140.092 388.542H111.963C111.963 388.542 93.6055 399.557 92.9799 416.097C92.3543 432.638 113.78 493.192 113.78 493.192H138.245C138.245 493.192 159.708 432.608 159.053 416.097Z" fill="#2F2E41"/>
<path d="M143.711 372.322H107.822L111.963 388.564H139.57L143.711 372.322Z" fill="#2F2E41"/>
<path d="M285.977 282.187C285.977 282.187 276.691 292.032 276.691 295.123C276.691 298.213 277.808 305.549 277.249 308.357C276.691 311.164 253.611 328.904 253.611 328.904L260.642 346.628C260.642 346.628 279.491 316.839 285.128 308.93C290.766 301.021 296.947 292.881 297.513 288.658C298.079 284.436 288.539 280.533 285.977 282.187Z" fill="#F9B499"/>
<path d="M287.549 355.238L314.91 344.454C314.91 344.454 332.724 324.346 346.368 309.593C360.011 294.84 377.081 298.213 377.081 308.848C377.081 319.483 372.158 335.331 367.608 342.212C363.057 349.094 353.957 366.848 353.957 366.848C353.957 366.848 385.809 374.429 394.522 379.352C403.236 384.275 438.253 409.141 456.261 422.1C468.102 430.575 474.976 434.015 476.867 434.015C477.381 434.015 478.29 433.926 479.37 433.799C483.704 433.293 488.902 428.728 492.626 426.352C497.742 423.172 505.569 418.778 510.127 418.302C517.329 417.557 514.677 428.147 509.382 435.736C504.087 443.325 494.555 445.596 491.189 448.24C487.822 450.884 480.599 452.41 477.917 452.798C475.236 453.185 451.383 443.317 441.143 439.147C430.902 434.976 411.592 434.015 399.922 420.081C396.048 415.399 391.693 411.138 386.926 407.369C386.926 407.369 323.624 410.013 312.252 411.16C300.88 412.306 274.725 413.051 263.732 413.051C252.74 413.051 247.14 408.702 247.14 408.702C247.14 408.702 242.902 402.811 249.329 393.346C255.756 383.88 287.549 355.238 287.549 355.238Z" fill="#2F2E41"/>
<path d="M509.397 435.833C514.692 428.244 517.351 417.631 510.142 418.398C505.584 418.875 497.757 423.276 492.641 426.449C488.917 428.735 483.704 433.3 479.385 433.896C478.327 434.023 477.396 434.112 476.882 434.112C475.289 434.112 470.098 431.655 461.355 425.734C460.126 430.835 456.573 437.285 447.041 441.738C458.554 446.43 475.698 453.304 477.925 452.984C480.584 452.604 487.785 451.085 491.196 448.426C494.607 445.767 504.065 443.414 509.397 435.833Z" fill="#F9B499"/>
<path d="M509.397 435.833C514.692 428.244 517.351 417.631 510.142 418.398C505.584 418.875 497.757 423.276 492.641 426.449C488.917 428.735 483.704 433.3 479.385 433.896C478.327 434.023 477.396 434.112 476.882 434.112C476.353 434.066 475.834 433.943 475.341 433.747C476.629 436.823 477.776 443.429 468.981 450.347C473.561 452.008 477.031 453.11 477.917 452.984C480.576 452.604 487.778 451.085 491.189 448.426C494.599 445.767 504.065 443.414 509.397 435.833Z" fill="#F27900"/>
<path d="M312.587 357.993C311.774 357.419 310.932 356.89 310.062 356.407" stroke="#263238" stroke-width="0.744733" stroke-miterlimit="10"/>
<path d="M353.949 366.841L319.632 364.83C318.216 362.922 316.579 361.189 314.754 359.669" stroke="#263238" stroke-width="0.744733" stroke-miterlimit="10"/>
<path d="M292.732 372.992C294.228 371.649 295.944 370.574 297.804 369.812" stroke="#263238" stroke-width="0.744733" stroke-miterlimit="10"/>
<path d="M282.872 383.977C284.959 381.115 287.241 378.4 289.701 375.852" stroke="#263238" stroke-width="0.744733" stroke-miterlimit="10"/>
<path d="M286.722 373.64C286.722 373.64 279.059 380.521 277.19 389.332" stroke="#263238" stroke-width="0.744733" stroke-miterlimit="10"/>
<path d="M287.549 355.238C287.498 356.272 287.295 357.293 286.946 358.269C286.335 360.101 282.395 375.301 271.753 388.356C264.86 396.575 256.533 403.476 247.177 408.724C234.347 398.766 222.627 387.455 212.219 374.988C194.278 353.711 183.629 333.357 184.254 309.645C184.88 285.933 192.446 271.046 192.446 271.046L191.836 252.807C193.05 249.769 199.439 245.524 207.944 250.99C216.449 256.456 223.144 269.228 223.144 269.228L221.93 276.527C221.93 276.527 225.572 278.962 227.702 280.183C229.832 281.405 237.734 288.375 244.719 297.193C251.705 306.011 259.011 332.464 260.225 339.144C261.439 345.824 271.455 347.046 271.455 347.046L281.777 352.534L287.549 355.238Z" fill="#F27900"/>
<path d="M223.129 269.243L221.93 276.527C221.93 276.527 203.089 270.45 192.454 271.06L191.843 252.822C193.057 249.783 199.447 245.538 207.952 251.005C216.457 256.471 223.129 269.243 223.129 269.243Z" fill="#F9B499"/>
<path d="M240.623 219.1C240.229 222.414 233.772 220.165 233.772 220.165L220.441 224.12C220.441 224.12 220.717 229.653 220.59 233.317C220.463 236.981 212.845 239.446 212.845 239.446L211.802 256.188L191.694 255.361L188.805 248.607C188.805 248.607 176.092 236.691 177.485 224.947C178.326 217.738 183.755 210.7 192.476 206.939C195.518 205.653 198.728 204.808 202.009 204.429C205.532 204.027 209.092 204.064 212.606 204.541C232.841 207.147 241.018 215.742 240.623 219.1Z" fill="#2F2E41"/>
<path d="M204.578 308.141C208.553 319.992 213.536 331.48 219.473 342.48C229.206 360.413 243.833 379.866 249.262 378.652C254.691 377.438 285.426 324.547 287.549 319.997C289.671 315.447 293.03 308.744 293.03 308.744C293.03 308.744 300.016 303.575 300.619 301.446C301.222 299.316 299.815 289.224 299.815 289.224C299.815 289.224 303.538 284.354 302.317 282.224C301.096 280.094 299.062 280.735 296.947 281.986C294.832 283.237 290.2 286.603 290.2 286.603C290.789 284.228 290.832 281.751 290.327 279.357C289.418 276.02 286.64 277.123 286.335 279.275C286.03 281.427 286.037 283.505 285.128 285.627C283.825 288.177 282.887 290.897 282.343 293.708C281.74 297.35 280.109 307.21 280.109 307.21C280.109 307.21 263.278 325.999 258.72 330.572C256.486 332.806 251.683 336.485 251.683 336.485L239.253 311.768C239.253 311.768 232.893 289.277 226.183 283.17C222.933 280.222 218.868 278.325 214.521 277.727C210.174 277.129 205.748 277.858 201.823 279.819" fill="#F27900"/>
<path d="M290.379 294.304C289.975 294.222 289.618 293.986 289.387 293.644C289.156 293.303 289.068 292.884 289.143 292.479L296.635 257.477C296.722 257.085 296.958 256.742 297.293 256.52C297.627 256.298 298.034 256.214 298.429 256.285V256.285C298.63 256.323 298.822 256.401 298.993 256.514C299.164 256.626 299.311 256.771 299.426 256.941C299.541 257.11 299.621 257.301 299.662 257.501C299.703 257.702 299.705 257.909 299.666 258.11V258.11L292.174 293.052C292.097 293.454 291.867 293.81 291.531 294.044C291.196 294.278 290.782 294.371 290.379 294.304V294.304Z" fill="#2F2E41"/>
<path d="M300.619 301.453C301.222 299.33 299.815 289.224 299.815 289.224C299.815 289.224 303.538 284.354 302.317 282.224C301.096 280.094 299.062 280.735 296.947 281.986C294.832 283.237 290.2 286.603 290.2 286.603C290.789 284.228 290.832 281.751 290.327 279.357C289.418 276.02 286.64 277.123 286.335 279.275C286.03 281.427 286.037 283.505 285.128 285.627C283.825 288.177 282.887 290.897 282.343 293.708C281.74 297.35 280.109 307.21 280.109 307.21C280.109 307.21 277.272 310.39 273.607 314.434L285.754 323.37C286.685 321.695 287.325 320.511 287.564 319.982C289.686 315.417 293.045 308.729 293.045 308.729C293.045 308.729 300.016 303.575 300.619 301.453Z" fill="#F9B499"/>
<path d="M356.519 315.111C356.519 315.111 354.344 326.595 357.889 335.338C361.434 344.081 378.116 375.792 379.211 381.512C380.305 387.231 376.477 396.831 379.486 400.376C382.495 403.921 396.98 405.03 410.646 404.211C424.312 403.392 432.243 401.746 433.881 396.019C435.52 390.292 436.615 387.261 432.511 387.261C428.408 387.261 424.319 387.812 418.838 386.725C413.357 385.638 401.351 378.786 399.713 377.699C398.075 376.611 396.734 373.327 396.734 373.327C396.734 373.327 392.884 362.126 389.049 335.875C385.213 309.623 387.991 298.437 375.643 294.572C363.296 290.706 349.049 306.487 346.353 309.563" fill="#2F2E41"/>
<path d="M433.881 395.974C435.52 390.233 436.615 387.224 432.511 387.224C428.408 387.224 424.319 387.775 418.838 386.688C413.357 385.6 401.351 378.756 399.713 377.661C398.075 376.567 396.734 373.29 396.734 373.29C395.221 368.372 393.978 363.375 393.01 358.321C383.381 354.984 376.068 361.3 372.441 365.56C375.956 372.91 378.801 379.233 379.255 381.445C380.313 387.187 376.522 396.756 379.531 400.309C382.54 403.861 397.025 404.956 410.69 404.144C424.356 403.332 432.236 401.761 433.881 395.974Z" fill="#F9B499"/>
<path d="M432.511 387.261C428.415 387.261 424.319 387.812 418.838 386.725C413.357 385.638 401.351 378.786 399.713 377.699C398.075 376.611 396.734 373.327 396.734 373.327C396.734 373.327 396.406 372.374 395.855 370.348C386.174 369.752 380.745 373.96 377.922 377.669C378.472 378.904 378.913 380.185 379.24 381.497C380.298 387.239 376.507 396.816 379.516 400.361C382.525 403.906 397.01 405.016 410.676 404.196C424.341 403.377 432.273 401.731 433.911 396.004C435.55 390.277 436.615 387.261 432.511 387.261Z" fill="#F27900"/>
<path d="M300.351 452.299H193.876V458.621H300.351V452.299Z" fill="#D1D3D4"/>
<path d="M286.64 419.612L321.107 488.053C321.36 488.562 321.479 489.127 321.453 489.694C321.427 490.262 321.257 490.814 320.959 491.297C320.661 491.781 320.245 492.181 319.749 492.459C319.254 492.737 318.696 492.884 318.128 492.887V492.887C317.532 492.887 316.947 492.727 316.434 492.423C315.922 492.119 315.501 491.682 315.216 491.159L277.152 421.72L286.64 419.612Z" fill="#D1D3D4"/>
<path d="M209.486 401.359L178.148 488.649C177.943 489.179 177.877 489.752 177.957 490.314C178.036 490.876 178.258 491.409 178.601 491.861C178.945 492.314 179.398 492.671 179.918 492.898C180.438 493.126 181.008 493.217 181.573 493.162V493.162C182.168 493.104 182.737 492.887 183.22 492.535C183.704 492.183 184.084 491.708 184.321 491.159L219.078 402.536L209.486 401.359Z" fill="#D1D3D4"/>
<path d="M200.728 296.813C200.728 296.813 185.975 276.78 179.652 277.83C173.329 278.88 166.939 323.691 174.357 353.748C181.774 383.806 207.587 414.816 243.379 424.371C285.024 435.438 320.555 415.896 320.831 412.254C321.106 408.613 282.425 393.792 200.728 296.813Z" fill="#D1D3D4"/>
<path opacity="0.29" d="M243.379 424.364C285.024 435.43 320.555 415.889 320.831 412.247C320.958 410.705 314.352 407.265 300.723 396.846C232.379 399.266 192.588 372.218 174.796 355.655C182.869 385.087 208.354 415.04 243.379 424.364Z" fill="black"/>
<path d="M510.142 448.932C510.142 448.932 497.958 444.591 469.554 442.58C441.15 440.569 414.213 443.637 413.155 446.304C412.351 448.314 416.484 474.685 418.451 486.973C418.736 488.711 419.628 490.292 420.968 491.434C422.308 492.577 424.01 493.208 425.771 493.214H503.223C504.994 493.207 506.703 492.57 508.046 491.417C509.389 490.264 510.277 488.67 510.552 486.921L515.258 456.29C515.546 454.66 515.185 452.981 514.253 451.612C513.321 450.243 511.891 449.292 510.269 448.962L510.142 448.932Z" fill="#D8D8D8"/>
<path opacity="0.29" d="M508.779 490.682C471.215 490.764 451.219 472.064 441.753 455.68C438.067 449.327 432.072 445.469 425.868 443.213C418.369 444.047 413.535 445.201 413.155 446.296C412.351 448.307 416.484 474.678 418.451 486.966C418.736 488.704 419.628 490.284 420.968 491.427C422.308 492.57 424.01 493.2 425.771 493.207H503.223C504.276 493.205 505.316 492.979 506.274 492.544C507.232 492.108 508.086 491.474 508.779 490.682Z" fill="black"/>
<path d="M233.772 220.165C233.772 220.165 250.156 247.944 234.516 274.01C233.228 276.147 230.904 278.798 225.274 277.182C219.644 275.566 211.385 270.368 208.324 267.866C205.263 265.363 203.312 247.393 203.312 247.393L209.665 245.382C209.665 245.382 208.131 237.555 208.92 236.11C209.709 234.665 218.453 235.701 216.948 230.316C215.444 224.932 212.316 222.735 214.074 220.784C215.831 218.832 233.757 220.098 233.757 220.098" fill="#F9B499"/>
<path d="M196.14 240.467L188.551 244.704C188.231 244.116 181.477 231.672 186.749 206.894C189.788 205.6 192.999 204.755 196.282 204.384C193.206 216.256 193.102 224.991 193.705 230.45C194.375 237.108 196.133 240.437 196.14 240.467Z" fill="#2F2E41"/>
<path opacity="0.2" d="M196.14 240.467L188.551 244.704C188.231 244.116 181.477 231.672 186.749 206.894C189.788 205.6 192.999 204.755 196.282 204.384C193.206 216.256 193.102 224.991 193.705 230.45C194.375 237.108 196.133 240.437 196.14 240.467Z" fill="black"/>
<path d="M199.849 261.044C206.734 261.044 212.316 255.462 212.316 248.577C212.316 241.692 206.734 236.11 199.849 236.11C192.964 236.11 187.382 241.692 187.382 248.577C187.382 255.462 192.964 261.044 199.849 261.044Z" fill="#2F2E41"/>
<path opacity="0.2" d="M199.849 261.044C206.734 261.044 212.316 255.462 212.316 248.577C212.316 241.692 206.734 236.11 199.849 236.11C192.964 236.11 187.382 241.692 187.382 248.577C187.382 255.462 192.964 261.044 199.849 261.044Z" fill="black"/>
<path d="M397.859 338.496L390.151 334.035V342.95L397.859 338.496Z" fill="white"/>
<path d="M397.859 292.404L390.151 287.958V296.865L397.859 292.404Z" fill="white"/>
<path d="M390.128 57.5232C390.131 56.6951 389.889 55.8847 389.431 55.1946C388.973 54.5045 388.321 53.9658 387.557 53.6465C386.793 53.3272 385.951 53.2417 385.138 53.401C384.326 53.5602 383.578 53.9569 382.991 54.5409C382.404 55.1249 382.004 55.8699 381.84 56.6817C381.676 57.4935 381.757 58.3356 382.073 59.1013C382.388 59.8671 382.923 60.5222 383.611 60.9836C384.298 61.4451 385.107 61.6922 385.935 61.6937C387.042 61.6937 388.102 61.2543 388.885 60.4722C389.667 59.69 390.106 58.6292 390.106 57.5232H390.128Z" fill="white" stroke="#A7A9AC" stroke-width="0.744733" stroke-miterlimit="10"/>
</svg>
